<svg xmlns="http://www.w3.org/2000/svg" fill="none" viewBox="0 0 84 84" id="Payments--Streamline-Sharp-Material.svg" height="84" width="84"><desc>Payments Streamline Icon: https://streamlinehq.com</desc><path fill="#000000" d="M47.25 47.25c-2.916725 0 -5.3957749999999995 -1.020775 -7.4375 -3.0625S36.75 39.666725 36.75 36.75s1.020775 -5.3957749999999995 3.0625 -7.4375S44.333275 26.25 47.25 26.25s5.3957749999999995 1.020775 7.4375 3.0625S57.75 33.833275 57.75 36.75s-1.020775 5.3957749999999995 -3.0625 7.4375S50.166725 47.25 47.25 47.25ZM14 59.5V14h66.5v45.5H14Zm14 -5.25h38.5c0 -2.4499999999999997 0.845775 -4.5207749999999995 2.5375 -6.2124999999999995C70.729225 46.345775 72.8 45.5 75.25 45.5V28c-2.4499999999999997 0 -4.5207749999999995 -0.845775 -6.2124999999999995 -2.5375C67.345775 23.770775 66.5 21.7 66.5 19.25H28c0 2.4499999999999997 -0.845775 4.5207749999999995 -2.5375 6.2124999999999995C23.770775 27.154225 21.7 28 19.25 28v17.5c2.4499999999999997 0 4.5207749999999995 0.845775 6.2124999999999995 2.5375 1.691725 1.691725 2.5375 3.7624999999999997 2.5375 6.2124999999999995ZM3.5 70V24.5h5.25v40.25h61.25v5.25H3.5Z" stroke-width="1"></path></svg>