<?xml version="1.0" encoding="utf-8"?>
<!-- Generator: Adobe Illustrator 24.3.0, SVG Export Plug-In . SVG Version: 6.00 Build 0)  -->
<svg version="1.1" id="Layer_1" xmlns="http://www.w3.org/2000/svg" xmlns:xlink="http://www.w3.org/1999/xlink" x="0px" y="0px"
	 viewBox="0 0 512 512" style="enable-background:new 0 0 512 512;" xml:space="preserve">
<style type="text/css">
	.st0{fill:#007CC3;}
</style>
<g id="XMLID_1_">
	<rect id="XMLID_7_" x="204.24" y="165.36" class="st0" width="14.73" height="73.08"/>
	<rect id="XMLID_8_" x="201.01" y="244.48" class="st0" width="110.12" height="11.08"/>
	<rect id="XMLID_9_" x="233.84" y="165.36" class="st0" width="14.73" height="73.08"/>
	<rect id="XMLID_10_" x="263.43" y="165.36" class="st0" width="14.73" height="73.08"/>
	<rect id="XMLID_11_" x="292.75" y="165.36" class="st0" width="14.73" height="73.08"/>
	<rect id="XMLID_12_" x="194.28" y="261.17" class="st0" width="123.86" height="11.08"/>
	<path id="XMLID_15_" class="st0" d="M256,98.73c-60.74,0-109.97,49.24-109.97,109.97S195.26,318.68,256,318.68
		s109.97-49.24,109.97-109.97S316.74,98.73,256,98.73z M256,303.11c-52.18,0-94.4-42.22-94.4-94.4s42.22-94.4,94.4-94.4
		s94.4,42.22,94.4,94.4C350.4,260.75,308.18,303.11,256,303.11z"/>
	<path id="XMLID_23_" class="st0" d="M87.81,339.02c0-2.1-1.68-3.09-4.91-3.09v-0.84h13.61c9.4,0,14.03,2.81,14.03,8.42
		c0,3.79-2.24,6.17-6.73,7.15l0,0c2.38,0.42,4.49,1.4,6.03,2.81c1.54,1.4,2.38,3.23,2.38,5.47c0,2.95-1.12,5.19-3.51,6.73
		c-2.38,1.54-5.61,2.38-9.68,2.38H82.9v-0.98c3.23,0,4.91-0.98,4.91-3.09V339.02L87.81,339.02z M93.14,363.43
		c0,0.98,0.28,1.68,0.84,1.96c0.56,0.42,1.68,0.56,3.37,0.56c2.95,0,5.19-0.56,6.87-1.68c1.68-1.12,2.38-2.95,2.38-5.75
		c0-4.77-3.65-7.01-10.94-7.01h-2.52L93.14,363.43L93.14,363.43z M97.35,349.68c2.67,0,4.63-0.56,6.03-1.54s2.1-2.52,2.1-4.49
		c0-1.82-0.56-3.37-1.68-4.35c-1.12-1.12-2.52-1.82-4.49-2.1c-1.96-0.14-3.23-0.14-3.51-0.14c-0.98,0-1.82,0.14-2.1,0.28
		c-0.42,0.14-0.56,0.56-0.56,1.26v11.22h4.21V349.68z"/>
	<path id="XMLID_26_" class="st0" d="M147.43,362.03c0.84,1.68,1.4,2.95,2.1,3.79c0.56,0.84,1.54,1.12,2.81,1.12v0.98h-13.05v-0.98
		c1.26-0.14,2.24-0.28,2.81-0.42c0.56-0.28,0.84-0.56,0.84-1.26c0-0.56-0.42-1.82-1.26-3.93l-1.82-4.21h-13.47
		c0,0.14-0.42,1.26-1.4,3.37c-0.84,2.1-1.26,3.65-1.26,4.35c0,1.4,1.12,2.1,3.37,2.1v0.98h-10.1v-0.98c1.4-0.14,2.52-0.84,3.37-2.1
		c0.84-1.26,1.96-3.51,3.37-6.59l10.38-23.99h0.98L147.43,362.03L147.43,362.03z M127.09,355.15h11.92l-6.03-13.75L127.09,355.15
		L127.09,355.15z"/>
	<path id="XMLID_27_" class="st0" d="M184.32,368.62h-0.84l-22.72-27.35v22.72c0,2.1,1.68,3.09,4.91,3.09v0.98H153.6v-0.98
		c3.37,0,5.05-0.98,5.05-3.09v-25.25l-0.42-0.56c-0.84-0.98-1.54-1.54-2.1-1.82c-0.42-0.28-1.26-0.42-2.52-0.42v-0.84h8.7
		l19.64,23.85v-19.92c0-2.1-1.68-3.09-4.91-3.09v-0.84h12.2v0.84c-3.37,0-4.91,0.98-4.91,3.09V368.62L184.32,368.62z"/>
	<path id="XMLID_28_" class="st0" d="M221.77,345.61h-1.12c-0.56-1.82-1.26-3.51-2.24-4.91c-0.98-1.4-2.24-2.52-3.79-3.23
		c-1.54-0.7-3.23-1.12-5.19-1.12c-4.07,0-7.01,1.4-8.98,4.35c-1.96,2.81-2.95,6.73-2.95,11.36c0,2.38,0.42,4.77,1.26,7.01
		c0.84,2.24,2.24,4.07,4.07,5.47c1.82,1.4,4.07,2.1,6.73,2.1c2.38,0,4.63-0.42,6.45-1.26c1.82-0.84,3.65-2.1,5.47-3.79l0.84,0.98
		c-1.54,1.82-3.51,3.37-6.03,4.49c-2.38,1.12-4.91,1.68-7.29,1.68c-3.37,0-6.31-0.7-8.98-1.96c-2.67-1.4-4.77-3.37-6.31-5.89
		c-1.54-2.52-2.24-5.61-2.24-9.12c0-2.52,0.42-4.77,1.26-6.87c0.84-2.1,2.1-3.93,3.65-5.47c1.54-1.54,3.51-2.81,5.61-3.65
		c2.1-0.84,4.49-1.26,7.01-1.26c1.4,0,2.52,0.14,3.37,0.28c0.84,0.14,1.96,0.56,3.23,0.84c1.26,0.42,2.1,0.56,2.52,0.56
		c0.84,0,1.54-0.56,2.1-1.82h0.98L221.77,345.61L221.77,345.61z"/>
	<path id="XMLID_31_" class="st0" d="M259.23,351.37c0,2.38-0.42,4.63-1.12,6.73c-0.7,2.1-1.82,3.93-3.37,5.47
		c-1.54,1.54-3.23,2.81-5.33,3.65c-2.1,0.84-4.35,1.26-6.87,1.26c-2.24,0-4.35-0.42-6.45-1.12c-2.1-0.84-3.79-1.96-5.47-3.51
		c-1.54-1.54-2.81-3.37-3.65-5.47c-0.84-2.1-1.26-4.49-1.26-7.01c0-3.23,0.7-6.17,2.1-8.7c1.4-2.67,3.37-4.63,5.89-6.17
		c2.52-1.54,5.47-2.24,8.84-2.24c3.09,0,5.89,0.7,8.42,2.1s4.49,3.51,6.03,6.03C258.52,345.05,259.23,348.14,259.23,351.37
		L259.23,351.37z M231.59,351.51c0,4.77,0.98,8.56,2.95,11.36c1.96,2.67,4.63,4.07,8,4.07c3.93-0.28,6.59-1.96,8.42-5.05
		c1.68-3.09,2.52-6.59,2.52-10.38c0-2.81-0.42-5.33-1.12-7.57c-0.7-2.38-1.96-4.21-3.65-5.61c-1.68-1.4-3.65-2.1-6.17-2.1
		C235.24,336.64,231.59,341.69,231.59,351.51L231.59,351.51z"/>
	<path id="XMLID_34_" class="st0" d="M278.44,367.92v-0.98c2.95,0,4.49-0.98,4.49-3.09v-24.97c0-2.1-1.54-3.09-4.49-3.09v-0.84
		h13.19c4.35,0,8.14,0.56,11.36,1.82c3.09,1.26,5.61,3.09,7.15,5.47c1.68,2.52,2.52,5.47,2.52,9.12c0,5.19-1.68,9.26-5.19,12.06
		c-3.51,2.95-8.56,4.35-15.43,4.35L278.44,367.92L278.44,367.92z M288.12,363.43c0,1.54,0.84,2.38,2.52,2.38
		c3.51,0,6.59-0.56,9.12-1.68c2.52-1.12,4.35-2.81,5.61-4.91c1.26-2.1,1.82-4.77,1.82-7.72c0-3.23-0.7-5.89-1.96-8.14
		c-1.26-2.24-3.23-3.93-5.61-5.05c-2.38-1.12-5.19-1.68-8.42-1.68c-1.26,0-2.1,0.14-2.52,0.42c-0.28,0.28-0.56,0.98-0.56,2.1V363.43
		L288.12,363.43z"/>
	<path id="XMLID_35_" class="st0" d="M314.92,367.92v-0.98c2.95,0,4.49-0.98,4.49-3.09v-24.97c0-2.1-1.54-3.09-4.49-3.09v-0.84
		h27.21v7.01h-1.12c-0.7-3.37-2.67-5.05-5.89-5.05h-8.28c-1.54,0-2.24,0.7-2.24,1.96v10.66h7.15c1.96,0,3.51-0.28,4.63-0.98
		c1.12-0.7,1.68-1.96,1.68-3.79h0.98v11.64h-0.98c0-3.23-2.1-4.91-6.45-4.91h-6.87v12.2c0,1.26,0.42,1.96,1.26,1.96h6.87
		c1.82,0,3.23-0.14,4.35-0.28c1.12-0.14,2.24-0.7,3.37-1.68c1.12-0.98,2.1-2.38,2.95-4.35h1.4l-2.24,8.42L314.92,367.92
		L314.92,367.92z"/>
	<path id="XMLID_36_" class="st0" d="M362.75,367.92v-0.98c2.95,0,4.49-0.98,4.49-3.09v-24.97c0-2.1-1.54-3.09-4.49-3.09v-0.84
		h14.17v0.84c-2.95,0-4.49,0.98-4.49,3.09v25.11c0,1.26,1.68,1.96,5.05,1.96c2.81,0,5.05-0.14,6.59-0.42
		c1.54-0.28,2.95-0.84,4.21-1.82c1.26-0.98,2.24-2.38,3.09-4.49h1.26l-2.52,8.7L362.75,367.92L362.75,367.92z"/>
	<path id="XMLID_39_" class="st0" d="M424.61,362.03c0.84,1.68,1.4,2.95,2.1,3.79c0.56,0.84,1.54,1.12,2.81,1.12v0.98h-13.05v-0.98
		c1.26-0.14,2.24-0.28,2.81-0.42c0.56-0.28,0.84-0.56,0.84-1.26c0-0.56-0.42-1.82-1.26-3.93l-1.82-4.21h-13.47
		c0,0.14-0.42,1.26-1.4,3.37c-0.84,2.1-1.26,3.65-1.26,4.35c0,1.4,1.12,2.1,3.37,2.1v0.98h-10.1v-0.98c1.4-0.14,2.52-0.84,3.37-2.1
		c0.84-1.26,1.96-3.51,3.37-6.59l10.38-23.99h0.98L424.61,362.03L424.61,362.03z M404.41,355.15h11.92l-6.03-13.75L404.41,355.15
		L404.41,355.15z"/>
	<path id="XMLID_40_" class="st0" d="M30.72,413.23h-0.84L7.15,385.87v22.72c0,2.1,1.68,3.09,4.91,3.09v0.98H0v-0.98
		c3.37,0,5.05-0.98,5.05-3.09v-25.25l-0.42-0.56c-0.84-0.98-1.54-1.54-2.1-1.82c-0.42-0.28-1.26-0.42-2.52-0.42v-0.84h8.7
		l19.64,23.85v-19.92c0-2.1-1.68-3.09-4.91-3.09v-0.84h12.2v0.84c-3.37,0-4.91,0.98-4.91,3.09L30.72,413.23L30.72,413.23z"/>
	<path id="XMLID_43_" class="st0" d="M67.47,406.77c0.84,1.68,1.4,2.95,2.1,3.79c0.56,0.84,1.54,1.12,2.81,1.12v0.98H59.34v-0.98
		c1.26-0.14,2.24-0.28,2.81-0.42c0.56-0.28,0.84-0.56,0.84-1.26c0-0.56-0.42-1.82-1.26-3.93l-1.82-4.21H46.43
		c0,0.14-0.42,1.26-1.4,3.37c-0.84,2.1-1.26,3.65-1.26,4.35c0,1.4,1.12,2.1,3.37,2.1v0.98h-10.1v-0.98c1.4-0.14,2.52-0.84,3.37-2.1
		c0.84-1.26,1.96-3.51,3.37-6.59L54.15,379h0.98L67.47,406.77z M47.27,399.76H59.2l-6.03-13.75L47.27,399.76z"/>
	<path id="XMLID_44_" class="st0" d="M105.07,390.22h-1.12c-0.56-1.82-1.26-3.51-2.24-4.91c-0.98-1.4-2.24-2.52-3.79-3.23
		c-1.54-0.7-3.23-1.12-5.19-1.12c-4.07,0-7.01,1.4-8.98,4.35c-1.96,2.81-2.95,6.73-2.95,11.36c0,2.38,0.42,4.77,1.26,7.01
		c0.84,2.24,2.24,4.07,4.07,5.47c1.82,1.4,4.07,2.1,6.73,2.1c2.38,0,4.63-0.42,6.45-1.26c1.82-0.84,3.65-2.1,5.47-3.79l0.84,0.98
		c-1.54,1.82-3.51,3.37-6.03,4.49c-2.38,1.12-4.91,1.68-7.29,1.68c-3.37,0-6.31-0.7-8.98-1.96c-2.67-1.4-4.77-3.37-6.31-5.89
		c-1.54-2.52-2.24-5.61-2.24-9.12c0-2.52,0.42-4.77,1.26-6.87c0.84-2.1,2.1-3.93,3.65-5.47c1.54-1.54,3.51-2.81,5.61-3.65
		c2.1-0.84,4.49-1.26,7.01-1.26c1.4,0,2.52,0.14,3.37,0.28c0.84,0.14,1.96,0.56,3.23,0.84c1.26,0.42,2.1,0.56,2.52,0.56
		c0.84,0,1.54-0.56,2.1-1.82h0.98L105.07,390.22L105.07,390.22z"/>
	<path id="XMLID_45_" class="st0" d="M118.53,408.6c0,2.1,1.68,3.09,4.91,3.09v0.98h-15.15v-0.98c3.37,0,4.91-0.98,4.91-3.09v-24.97
		c0-2.1-1.68-3.09-4.91-3.09v-0.84h15.15v0.84c-3.37,0-4.91,0.98-4.91,3.09V408.6z"/>
	<path id="XMLID_48_" class="st0" d="M159.49,396.11c0,2.38-0.42,4.63-1.12,6.73c-0.7,2.1-1.82,3.93-3.37,5.47
		c-1.54,1.54-3.23,2.81-5.33,3.65c-2.1,0.84-4.35,1.26-6.87,1.26c-2.24,0-4.35-0.42-6.45-1.12c-2.1-0.84-3.79-1.96-5.47-3.51
		c-1.54-1.54-2.81-3.37-3.65-5.47c-0.84-2.1-1.26-4.49-1.26-7.01c0-3.23,0.7-6.17,2.1-8.7c1.4-2.67,3.37-4.63,5.89-6.17
		c2.52-1.54,5.47-2.24,8.84-2.24c3.09,0,5.89,0.7,8.42,2.1s4.49,3.51,6.03,6.03C158.79,389.8,159.49,392.75,159.49,396.11z
		 M132,396.11c0,4.77,0.98,8.56,2.95,11.36c1.96,2.67,4.63,4.07,8,4.07c3.93-0.28,6.59-1.96,8.42-5.05
		c1.68-3.09,2.52-6.59,2.52-10.38c0-2.81-0.42-5.33-1.12-7.57c-0.7-2.38-1.96-4.21-3.65-5.61c-1.68-1.4-3.65-2.1-6.17-2.1
		C135.64,381.24,132,386.43,132,396.11L132,396.11z"/>
	<path id="XMLID_49_" class="st0" d="M192.6,413.23h-0.84l-22.72-27.35v22.72c0,2.1,1.68,3.09,4.91,3.09v0.98h-12.06v-0.98
		c3.37,0,5.05-0.98,5.05-3.09v-25.25l-0.42-0.56c-0.84-0.98-1.54-1.54-2.1-1.82c-0.42-0.28-1.26-0.42-2.52-0.42v-0.84h8.7
		l19.64,23.85v-19.92c0-2.1-1.68-3.09-4.91-3.09v-0.84h12.2v0.84c-3.37,0-4.91,0.98-4.91,3.09L192.6,413.23L192.6,413.23z"/>
	<path id="XMLID_52_" class="st0" d="M245.9,406.77c0.84,1.68,1.4,2.95,2.1,3.79c0.56,0.84,1.54,1.12,2.81,1.12v0.98h-13.05v-0.98
		c1.26-0.14,2.24-0.28,2.81-0.42c0.56-0.28,0.84-0.56,0.84-1.26c0-0.56-0.42-1.82-1.26-3.93l-1.82-4.21h-13.47
		c0,0.14-0.42,1.26-1.4,3.37c-0.84,2.1-1.26,3.65-1.26,4.35c0,1.4,1.12,2.1,3.37,2.1v0.98h-10.24v-0.98c1.4-0.14,2.52-0.84,3.37-2.1
		c0.84-1.26,1.96-3.51,3.37-6.59L232.43,379h0.98L245.9,406.77z M225.7,399.76h11.92l-6.03-13.75L225.7,399.76L225.7,399.76z"/>
	<path id="XMLID_55_" class="st0" d="M256.42,383.63c0-2.1-1.4-3.09-4.35-3.09v-0.84h13.47c4.35,0,7.72,0.7,10.1,2.1
		s3.51,3.65,3.51,6.45c0,2.52-0.84,4.35-2.52,5.75c-1.68,1.4-3.93,2.24-6.59,2.67l10.1,12.06c0.84,0.98,1.54,1.68,2.24,2.1
		c0.7,0.42,1.54,0.7,2.67,0.7v0.98h-8.28l-12.06-15.29h-2.95v11.22c0,2.1,1.54,3.09,4.63,3.09v0.98h-14.03v-0.84
		c2.95,0,4.35-0.98,4.35-3.09v-24.97H256.42z M261.61,395.55c4.07-0.14,7.15-0.7,8.98-1.68c1.96-0.98,2.95-2.81,2.95-5.47
		c0-2.38-0.7-4.07-2.24-5.19c-1.54-1.12-3.51-1.68-5.89-1.68c-1.26,0-2.1,0-2.52,0.14c-0.42,0.14-0.84,0.28-0.98,0.56
		c-0.14,0.28-0.28,0.84-0.28,1.68L261.61,395.55L261.61,395.55z"/>
	<path id="XMLID_56_" class="st0" d="M317.58,389.52h-1.12c-2.1-5.75-5.89-8.56-11.36-8.56c-2.67,0-5.05,0.7-6.87,2.1
		s-3.23,3.23-4.07,5.61s-1.26,5.05-1.26,8c0,4.07,1.12,7.57,3.37,10.38c2.24,2.81,5.47,4.21,9.54,4.21c2.38,0,4.21-0.42,5.75-1.12
		c0.7-0.28,1.12-0.7,1.26-0.84c0.14-0.28,0.14-0.7,0.14-1.54v-7.43c0-1.12-0.14-1.96-0.28-2.52c-0.14-0.56-0.56-0.98-1.26-1.4
		c-0.7-0.28-1.68-0.56-2.95-0.56v-0.98h13.05v0.98c-1.54,0-2.52,0.42-2.95,0.98c-0.42,0.7-0.56,1.82-0.56,3.37v9.54
		c-1.68,0.84-3.79,1.68-6.31,2.38c-2.52,0.7-4.77,1.12-6.73,1.12c-2.95,0-5.89-0.7-8.7-1.82c-2.81-1.26-5.05-3.23-6.73-5.75
		c-1.68-2.52-2.67-5.75-2.67-9.4c0-3.23,0.7-6.17,2.24-8.84c1.54-2.67,3.65-4.63,6.31-6.17s5.61-2.24,8.98-2.24
		c1.68,0,3.51,0.28,5.61,0.84c2.1,0.56,3.37,0.84,3.79,0.84c1.12,0,1.82-0.56,2.24-1.54h0.98L317.58,389.52L317.58,389.52z"/>
	<path id="XMLID_57_" class="st0" d="M323.19,412.67v-0.98c2.95,0,4.49-0.98,4.49-3.09v-24.97c0-2.1-1.54-3.09-4.49-3.09v-0.84
		h27.21v7.01h-1.12c-0.7-3.37-2.67-5.05-5.89-5.05h-8.28c-1.54,0-2.24,0.7-2.24,1.96v10.66h7.15c1.96,0,3.51-0.28,4.63-0.98
		c1.12-0.7,1.68-1.96,1.68-3.79h0.98v11.64h-0.98c0-3.23-2.1-4.91-6.45-4.91h-7.15v12.2c0,1.26,0.42,1.96,1.26,1.96h6.87
		c1.82,0,3.23-0.14,4.35-0.28c1.12-0.14,2.24-0.7,3.37-1.68s2.1-2.38,2.95-4.35h1.4l-2.24,8.42L323.19,412.67L323.19,412.67z"/>
	<path id="XMLID_58_" class="st0" d="M385.19,413.23h-0.84l-22.72-27.35v22.72c0,2.1,1.68,3.09,4.91,3.09v0.98h-12.06v-0.98
		c3.37,0,5.05-0.98,5.05-3.09v-25.25l-0.42-0.56c-0.84-0.98-1.54-1.54-2.1-1.82c-0.42-0.28-1.26-0.42-2.52-0.42v-0.84h8.7
		l19.64,23.85v-19.92c0-2.1-1.68-3.09-4.91-3.09v-0.84h12.2v0.84c-3.37,0-4.91,0.98-4.91,3.09L385.19,413.23L385.19,413.23z"/>
	<path id="XMLID_59_" class="st0" d="M413.39,412.67h-14.17v-0.98c2.95,0,4.49-0.98,4.49-3.09v-26.79h-3.65
		c-1.54,0-2.81,0.14-3.65,0.28c-0.84,0.14-1.54,0.7-2.24,1.68c-0.56,0.98-1.12,2.38-1.4,4.35h-1.26l0.42-8.42h28.9l0.28,8.42h-1.26
		c-0.28-1.96-0.84-3.51-1.4-4.35c-0.56-0.98-1.4-1.4-2.24-1.68c-0.84-0.14-1.96-0.28-3.65-0.28h-3.65v26.79
		c0,2.1,1.54,3.09,4.49,3.09V412.67L413.39,412.67z"/>
	<path id="XMLID_60_" class="st0" d="M433.17,408.6c0,2.1,1.68,3.09,4.91,3.09v0.98h-15.15v-0.98c3.37,0,4.91-0.98,4.91-3.09v-24.97
		c0-2.1-1.68-3.09-4.91-3.09v-0.84h15.15v0.84c-3.37,0-4.91,0.98-4.91,3.09V408.6z"/>
	<path id="XMLID_61_" class="st0" d="M470.34,413.23h-0.84l-22.72-27.35v22.72c0,2.1,1.68,3.09,4.91,3.09v0.98h-12.06v-0.98
		c3.37,0,5.05-0.98,5.05-3.09v-25.25l-0.42-0.56c-0.84-0.98-1.54-1.54-2.1-1.82c-0.42-0.28-1.26-0.42-2.52-0.42v-0.84h8.7
		l19.64,23.85v-19.92c0-2.1-1.68-3.09-4.91-3.09v-0.84h12.2v0.84c-3.37,0-4.91,0.98-4.91,3.09L470.34,413.23L470.34,413.23z"/>
	<path id="XMLID_64_" class="st0" d="M507.09,406.77c0.84,1.68,1.4,2.95,2.1,3.79c0.56,0.84,1.54,1.12,2.81,1.12v0.98h-13.05v-0.98
		c1.26-0.14,2.24-0.28,2.81-0.42c0.56-0.28,0.84-0.56,0.84-1.26c0-0.56-0.42-1.82-1.26-3.93l-1.82-4.21h-13.47
		c0,0.14-0.42,1.26-1.4,3.37c-0.84,2.1-1.26,3.65-1.26,4.35c0,1.4,1.12,2.1,3.37,2.1v0.98h-10.1v-0.98c1.4-0.14,2.52-0.84,3.37-2.1
		c0.84-1.26,1.96-3.51,3.37-6.59L493.76,379h0.98L507.09,406.77z M486.89,399.76h11.92l-6.03-13.75L486.89,399.76z"/>
	<path id="XMLID_65_" class="st0" d="M192.46,160.03L192.46,160.03L192.46,160.03z"/>
	<path id="XMLID_68_" class="st0" d="M254.46,128.05l-62,31.98l127.37-0.14L254.46,128.05z M228.65,151.2L228.65,151.2l26.79-13.75
		l28.2,13.75H228.65L228.65,151.2L228.65,151.2z"/>
</g>
</svg>
