<svg xmlns="http://www.w3.org/2000/svg" fill="none" viewBox="-2.625 -2.625 84 84" id="Cash-Payment-Bills--Streamline-Ultimate.svg" height="84" width="84"><desc>Cash Payment Bills Streamline Icon: https://streamlinehq.com</desc><path stroke="#000000" stroke-linecap="round" stroke-linejoin="round" d="M10.404909374999999 41.9685h8.203125c0.22427343749999998 -0.008531249999999999 0.4478578125 0.030515624999999998 0.655921875 0.114515625 0.20806406249999998 0.084328125 0.39585 0.211640625 0.5509546875 0.3740625 0.1551046875 0.16209375 0.273984375 0.355359375 0.34876406249999997 0.5670000000000001 0.0747796875 0.211640625 0.103753125 0.436734375 0.084984375 0.660515625v30.87328125c0.01876875 0.22378125 -0.0102046875 0.448875 -0.084984375 0.660515625 -0.0747796875 0.211640625 -0.19365937500000002 0.40490624999999997 -0.34876406249999997 0.5670000000000001 -0.1551046875 0.16242187500000002 -0.342890625 0.289734375 -0.5509546875 0.3740625 -0.20806406249999998 0.084 -0.4316484375 0.123046875 -0.655921875 0.114515625h-8.203125" stroke-width="5.25"></path><path stroke="#000000" stroke-linecap="round" stroke-linejoin="round" d="m33.8690625 34.72875 -6.306496875 7.85203125c-0.41419218750000003 0.516140625 -0.935025 0.936796875 -1.52683125 1.2327656249999999 -0.5918390625 0.296296875 -1.240640625 0.46101562500000004 -1.902075 0.48332812499999994h-3.885" stroke-width="5.25"></path><path stroke="#000000" stroke-linecap="round" stroke-linejoin="round" d="M20.248659375000003 67.363734375c7.035 5.33203125 13.453059375 8.911546874999999 17.597278125000003 8.911546874999999h20.58328125c2.49375 0 4.0621875 -0.1771875 5.1450000000000005 -3.42890625 1.653421875 -8.300578125 2.7995625 -16.694015625 3.4321875 -25.134375000000002 0 -1.7128125 -1.71609375 -3.42890625 -5.1450000000000005 -3.42890625h-19.464375" stroke-width="5.25"></path><path stroke="#000000" stroke-linecap="round" stroke-linejoin="round" d="M34.629984375 40.04765625 29.550773437500002 4.50515625c-0.0361921875 -0.253903125 -0.0174234375 -0.5126296875 0.0550265625 -0.7586578125 0.0724171875 -0.24602812500000001 0.19684218750000002 -0.47362875 0.364809375 -0.6674325 0.168 -0.19380046874999998 0.3756375 -0.3492759375 0.60886875 -0.45591656249999996 0.2332640625 -0.106640625 0.486675 -0.1619559375 0.7431703125 -0.162211875h24.7863984375" stroke-width="5.25"></path><path stroke="#000000" stroke-linecap="round" stroke-linejoin="round" d="m45.40921875 44.297203124999996 -3.005625 -30.052903125c-0.024609375 -0.22958906250000002 -0.000328125 -0.4617703125 0.071203125 -0.6813515625 0.071203125 -0.21958124999999998 0.18834375 -0.42160781249999996 0.34321875 -0.5928890625 0.15487499999999998 -0.17128125000000002 0.344203125 -0.3079453125 0.5555156250000001 -0.401034375 0.2113125 -0.09312187499999999 0.4396875 -0.14056875000000002 0.6706875 -0.13925625h22.640625c0.238546875 -0.0028546875 0.47446875 0.046331250000000004 0.692015625 0.1440796875 0.217546875 0.09778125 0.411140625 0.24179531250000003 0.567328125 0.4220015625 0.1561875 0.1802390625 0.27135937499999996 0.3923390625 0.336984375 0.6215671875 0.065953125 0.2291953125 0.081046875 0.47000625 0.044296875 0.7056328125l-4.528124999999999 30.187434375" stroke-width="5.25"></path><path stroke="#000000" d="M54.783750000000005 30.748101562500004c-0.679546875 0 -1.23046875 -0.5508890625 -1.23046875 -1.23046875s0.550921875 -1.23046875 1.23046875 -1.23046875" stroke-width="5.25"></path><path stroke="#000000" d="M54.783750000000005 30.748101562500004c0.679875 0 1.23046875 -0.5508890625 1.23046875 -1.23046875s-0.55059375 -1.23046875 -1.23046875 -1.23046875" stroke-width="5.25"></path></svg>