<svg xmlns="http://www.w3.org/2000/svg" fill="none" viewBox="-2.625 -2.625 84 84" id="Cash-Payment-Bill--Streamline-Ultimate.svg" height="84" width="84"><desc>Cash Payment Bill Streamline Icon: https://streamlinehq.com</desc><path stroke="#000000" stroke-linecap="round" stroke-linejoin="round" d="M2.4609375 46.7578125v29.53125" stroke-width="5.25"></path><path stroke="#000000" stroke-linecap="round" stroke-linejoin="round" d="M2.4609375 71.3671875h54.140625c0 -2.6105625 -1.037203125 -5.114484375 -2.8832343750000002 -6.960515625 -1.84603125 -1.84603125 -4.349953125000001 -2.8832343750000002 -6.960515625 -2.8832343750000002H34.453125c0 -2.6105625 -1.037203125 -5.114484375 -2.88316875 -6.960515625C29.7238921875 52.716890625 27.220101562500002 51.6796875 24.609375 51.6796875H2.4609375" stroke-width="5.25"></path><path stroke="#000000" stroke-linecap="round" stroke-linejoin="round" d="M22.1484375 61.5234375h12.3046875" stroke-width="5.25"></path><path stroke="#000000" stroke-linecap="round" stroke-linejoin="round" d="M21.7547203125 2.4609375H71.7609375c1.21275 0.0172921875 2.369390625 0.51340734375 3.2175937500000003 1.3801265624999999 0.8482031250000001 0.866709375 1.319390625 2.0337187500000002 1.31053125 3.2464359375v28.48125c0.008859375000000001 1.21275 -0.462328125 2.3795625 -1.31053125 3.24646875 -0.8482031250000001 0.866578125 -2.00484375 1.362703125 -3.2175937500000003 1.38009375H21.7547203125c-1.2126515625 -0.017390625 -2.3692265624999997 -0.513515625 -3.217528125 -1.38009375 -0.8482687500000001 -0.86690625 -1.319390625 -2.0337187500000002 -1.3105968749999999 -3.24646875V7.0875c-0.00879375 -1.2127171875 0.462328125 -2.3797265624999997 1.3105968749999999 -3.2464359375 0.8483015625 -0.86671921875 2.0048765625000002 -1.362834375 3.217528125 -1.3801265624999999Z" stroke-width="5.25"></path><path stroke="#000000" stroke-linecap="round" stroke-linejoin="round" d="M39.375 21.328125c0 1.9580531250000002 0.7779843750000001 3.8358796875 2.1623437500000002 5.2204359375 1.3846874999999998 1.38455625 3.262546875 2.1623765625 5.22046875 2.1623765625s3.83578125 -0.7778203125 5.22046875 -2.1623765625c1.384359375 -1.38455625 2.1623437500000002 -3.2623828125 2.1623437500000002 -5.2204359375 0 -1.9580531250000002 -0.7779843750000001 -3.8358796875 -2.1623437500000002 -5.2204359375 -1.3846874999999998 -1.38455625 -3.262546875 -2.1623765625 -5.22046875 -2.1623765625s-3.83578125 0.7778203125 -5.22046875 2.1623765625C40.152984375 17.4922453125 39.375 19.370071875 39.375 21.328125Z" stroke-width="5.25"></path><path stroke="#000000" stroke-linecap="round" stroke-linejoin="round" d="M26.25 13.125h4.921875" stroke-width="5.25"></path><path stroke="#000000" stroke-linecap="round" stroke-linejoin="round" d="M62.34375 29.53125h4.921875" stroke-width="5.25"></path></svg>