<svg id="Delivery--Streamline-Carbon.svg" xmlns="http://www.w3.org/2000/svg" viewBox="0 0 84 84" height="84" width="84"><desc>Delivery Streamline Icon: https://streamlinehq.com</desc><defs></defs><path d="M10.5 42h31.5v5.25H10.5Z" fill="#000000" stroke-width="1"></path><path d="M5.25 28.875h26.25v5.25H5.25Z" fill="#000000" stroke-width="1"></path><path d="m78.5371125 43.5918 -7.875 -18.375A2.6210625000000003 2.6210625000000003 0 0 0 68.25 23.625h-7.875V18.375a2.625 2.625 0 0 0 -2.625 -2.625H15.75v5.25h39.375v32.960025A10.48005 10.48005 0 0 0 50.2480125 60.375h-16.496025a10.5 10.5 0 1 0 0 5.25h16.496025a10.449075 10.449075 0 0 0 20.253975 0H76.125a2.625 2.625 0 0 0 2.625 -2.625v-18.375a2.6158125 2.6158125 0 0 0 -0.2128875 -1.0332000000000001ZM23.625 68.25a5.25 5.25 0 1 1 5.25 -5.25 5.2560375 5.2560375 0 0 1 -5.25 5.25Zm36.75 -39.375h6.1446000000000005l5.6256375 13.125H60.375Zm0 39.375a5.25 5.25 0 1 1 5.25 -5.25 5.2560375 5.2560375 0 0 1 -5.25 5.25Zm13.125 -7.875h-2.9980124999999997A10.487925 10.487925 0 0 0 60.375 52.5v-5.25h13.125Z" fill="#000000" stroke-width="1"></path><path id="_Transparent_Rectangle_" d="M0 0h84v84H0Z" fill="none" stroke-width="1"></path></svg>