<svg xmlns="http://www.w3.org/2000/svg" fill="#000000" class="bi bi-truck" viewBox="0 0 84 84" id="Truck--Streamline-Bootstrap.svg" height="84" width="84"><desc>Truck Streamline Icon: https://streamlinehq.com</desc><path d="M0 18.375A7.875 7.875 0 0 1 7.875 10.5h47.25A7.875 7.875 0 0 1 63 18.375V26.25h5.355a7.875 7.875 0 0 1 6.1425 2.9557499999999997l7.775250000000001 9.7125a7.875 7.875 0 0 1 1.7272500000000002 4.9245V55.125a7.875 7.875 0 0 1 -7.875 7.875H73.5a10.5 10.5 0 1 1 -21 0H26.25a10.5 10.5 0 1 1 -20.9895 -0.44625000000000004A7.875 7.875 0 0 1 0 55.125zm6.7935 39.144000000000005A10.5 10.5 0 0 1 24.843 57.75h29.063999999999997a10.5 10.5 0 0 1 3.843 -3.843V18.375a2.625 2.625 0 0 0 -2.625 -2.625h-47.25a2.625 2.625 0 0 0 -2.625 2.625v36.75a2.625 2.625 0 0 0 1.5434999999999999 2.394M63 52.5a10.5 10.5 0 0 1 9.093 5.25h4.032a2.625 2.625 0 0 0 2.625 -2.625V43.8375a2.625 2.625 0 0 0 -0.5775 -1.638l-7.77 -9.7125A2.625 2.625 0 0 0 68.355 31.5H63zm-47.25 5.25a5.25 5.25 0 1 0 0 10.5 5.25 5.25 0 0 0 0 -10.5m47.25 0a5.25 5.25 0 1 0 0 10.5 5.25 5.25 0 0 0 0 -10.5" stroke-width="1"></path></svg>