<svg xmlns="http://www.w3.org/2000/svg" fill="#000000" class="bi bi-person" viewBox="0 0 84 84" id="Person--Streamline-Bootstrap.svg" height="84" width="84"><desc>Person Streamline Icon: https://streamlinehq.com</desc><path d="M42 42a15.75 15.75 0 1 0 0 -31.5 15.75 15.75 0 0 0 0 31.5m10.5 -15.75a10.5 10.5 0 1 1 -21 0 10.5 10.5 0 0 1 21 0m21 42c0 5.25 -5.25 5.25 -5.25 5.25H15.75s-5.25 0 -5.25 -5.25 5.25 -21 31.5 -21 31.5 15.75 31.5 21m-5.25 -0.021c-0.00525 -1.2915 -0.8085 -5.1765 -4.367999999999999 -8.735999999999999C60.459 56.07 54.01725 52.5 42 52.5s-18.459 3.5700000000000003 -21.882 6.993c-3.5595000000000003 3.5595000000000003 -4.3575 7.4445 -4.367999999999999 8.735999999999999z" stroke-width="1"></path></svg>