<svg xmlns="http://www.w3.org/2000/svg" viewBox="0 0 24 24" fill="#000000" id="User-Light--Streamline-Phosphor" height="24" width="24"><desc>User Light Streamline Icon: https://streamlinehq.com</desc><path d="M23.652159375 22.23705c-1.820540625 -3.1459312500000003 -4.67859375 -5.353378125 -7.9995562499999995 -6.28955625 5.531409375 -2.811778125 5.94470625 -10.557065625 0.743934375 -13.941524999999999 -5.200771875 -3.3844593750000005 -12.115040625 0.13025625 -12.445678124999999 6.326493750000001 -0.16993125 3.184565625 1.5536531249999999 6.1699125 4.3965375 7.61503125 -3.3209625000000003 0.935025 -6.179015625 3.142471875 -7.9995562499999995 6.28955625 -0.285328125 0.448846875 0.0222375 1.038253125 0.5536125 1.0609312499999999 0.267515625 0.01141875 0.5175375 -0.13275937499999999 0.6416531249999999 -0.370021875C3.755165625 19.106090625 7.6634062499999995 16.824946875000002 12 16.824946875000002s8.244834375 2.28114375 10.456884375 6.1030125c0.24653437500000003 0.471271875 0.910790625 0.49893750000000003 1.19565 0.0498 0.14341875 -0.22611562500000001 0.14326875 -0.514734375 -0.000375 -0.740709375ZM5.321221875 8.76435c0 -5.141325 5.5656468750000005 -8.354653124999999 10.018162499999999 -5.783990625 4.452525 2.5706625 4.452525 8.99731875 0 11.56798125 -1.015303125 0.58618125 -2.1670125 0.8947875 -3.339384375 0.8947875 -3.686746875 -0.00444375 -6.674334374999999 -2.99203125 -6.678778125000001 -6.678778125000001Z" stroke-width="0.0938"></path></svg>