<svg xmlns="http://www.w3.org/2000/svg" fill="#000000" class="bi bi-bag" viewBox="0 0 84 84" id="Bag--Streamline-Bootstrap.svg" height="84" width="84"><desc>Bag Streamline Icon: https://streamlinehq.com</desc><path d="M42 5.25a13.125 13.125 0 0 1 13.125 13.125V21h-26.25v-2.625A13.125 13.125 0 0 1 42 5.25m18.375 15.75v-2.625a18.375 18.375 0 1 0 -36.75 0V21H5.25v52.5a10.5 10.5 0 0 0 10.5 10.5h52.5a10.5 10.5 0 0 0 10.5 -10.5V21zM10.5 26.25h63v47.25a5.25 5.25 0 0 1 -5.25 5.25H15.75a5.25 5.25 0 0 1 -5.25 -5.25z" stroke-width="1"></path></svg>