<svg xmlns="http://www.w3.org/2000/svg" viewBox="-0.5 -0.5 84 84" fill="#000000" id="Truck-Thin--Streamline-Phosphor-Thin.svg" height="84" width="84"><desc>Truck Thin Streamline Icon: https://streamlinehq.com</desc><path d="m82.068325 33.972451171875 -4.908444921875 -12.271128515625001c-0.6409480468750001 -1.5926921875 -2.1853640625 -2.6361902343750003 -3.90223203125 -2.636546875h-13.5262765625V14.857551171874999c0 -0.7745261718750001 -0.6278820312500001 -1.402408203125 -1.402408203125 -1.402408203125H5.03725703125C2.71364609375 13.45514296875 0.8300000000000001 15.3387890625 0.8300000000000001 17.662367578125v39.267591796875c0 2.323578515625 1.88364609375 4.207224609375 4.20725703125 4.207224609375h7.113716015624999c1.0848359375 7.4787863281249995 9.858876171875 10.978662890625 15.793278906249999 6.299797265625001 1.9743949218749999 -1.556671484375 3.276262890625 -3.81158046875 3.6371832031249998 -6.299797265625001h19.8371296875c1.0848359375 7.4787863281249995 9.858876171875 10.978662890625 15.793278906249999 6.299797265625001 1.9743949218749999 -1.556671484375 3.27623046875 -3.81158046875 3.6371832031249998 -6.299797265625001h7.113716015624999c2.3236109375000003 0 4.20725703125 -1.88364609375 4.20725703125 -4.207224609375v-22.438628515625c-0.0006808593749999999 -0.177833984375 -0.035177734375 -0.353949609375 -0.101675 -0.5188796875Zm-22.336953515625 -12.1028265625h13.5262765625c0.5738671875 -0.001134765625 1.090509765625 0.34746523437500004 1.3042671875 0.8799945312499999l4.13359453125 10.339303515625h-18.964138281249998ZM3.63481640625 17.662367578125c0 -0.7745261718750001 0.6278820312500001 -1.402408203125 1.4024406249999999 -1.402408203125h51.889298046875v25.243444921875003H3.63481640625Zm18.23140390625 49.084481640625c-5.397917968750001 0.000259375 -8.771543750000001 -5.8430054687499995 -6.07281171875 -10.517818359375 2.69873203125 -4.6748453125 9.44611328125 -4.675137109375 12.145266796875 -0.000551171875 0.615529296875 1.06603125 0.9395859375000001 2.275334765625 0.9395859375000001 3.50629609375 0 3.87253359375 -3.139507421875 7.011911328125 -7.012041015625001 7.012073437500001Zm29.55234453125 -8.414481640625H31.58143515625c-1.0848359375 -7.4787863281249995 -9.858876171875 -10.978662890625 -15.793278906249999 -6.299764843749999 -1.9743949218749999 1.556671484375 -3.276262890625 3.811548046875 -3.6371832031249998 6.299764843749999H5.03725703125c-0.7745585937499999 0.000032421875 -1.4024406249999999 -0.627849609375 -1.4024406249999999 -1.402408203125v-12.621738671874999h53.291738671874995v6.55978828125c-2.967866015625 1.41151875 -5.03453359375 4.212217578125 -5.507990234375 7.46435859375Zm9.71521484375 8.414481640625c-5.397885546875 0.000259375 -8.771511328125001 -5.8430054687499995 -6.072779296875 -10.517818359375 2.69873203125 -4.6748453125 9.44611328125 -4.675137109375 12.145266796875 -0.000551171875 0.615529296875 1.06603125 0.9395859375000001 2.275334765625 0.9395859375000001 3.50629609375 0 3.87253359375 -3.139507421875 7.011911328125 -7.012073437500001 7.012073437500001Zm18.23140390625 -9.81688984375c0 0.7745261718750001 -0.6278820312500001 1.402408203125 -1.4024406249999999 1.402408203125h-7.113716015624999c-0.775044921875 -5.365269140625 -5.75222421875 -9.086781640625 -11.11765546875 -8.312806640625v-14.125821875000002h19.633812109375Z" stroke-width="1"></path></svg>