<svg xmlns="http://www.w3.org/2000/svg" viewBox="-0.5 -0.5 84 84" fill="#000000" id="Credit-Card-Thin--Streamline-Phosphor-Thin.svg" height="84" width="84"><desc>Credit Card Thin Streamline Icon: https://streamlinehq.com</desc><path d="M77.65110390625 12.88036796875H5.3488960937500005C2.8530925781249996 12.880270703125 0.8300000000000001 14.903460546875001 0.8300000000000001 17.3992640625v48.201471875c0 2.49570625 2.02318984375 4.51889609375 4.51889609375 4.51889609375h72.3022078125c2.49570625 0 4.51889609375 -2.02318984375 4.51889609375 -4.51889609375V17.3992640625c0 -2.49570625 -2.02318984375 -4.51889609375 -4.51889609375 -4.51889609375ZM5.3488960937500005 15.892976171875h72.3022078125c0.83188046875 0.000032421875 1.5063203125 0.6744074218749999 1.5063203125 1.5062878906250001v10.544080078125H3.842608203125V17.3992640625c0 -0.8319453124999999 0.674342578125 -1.5063527343749998 1.5062878906250001 -1.5062878906250001Zm72.3022078125 51.21404765625H5.3488960937500005c-0.8319128906250001 0 -1.5062878906250001 -0.6743750000000001 -1.5062878906250001 -1.5062878906250001V30.955919921874997h75.314816015625v34.644816015625004c0 0.8319128906250001 -0.6744074218749999 1.5062878906250001 -1.5063203125 1.5062878906250001Zm-7.531471875 -10.54404765625c0 0.83188046875 -0.6744074218749999 1.50625546875 -1.5062878906250001 1.5062878906250001h-12.05036796875c-1.159568359375 -0.001718359375 -1.882446484375 -1.258001171875 -1.301187109375 -2.2613609375 0.268971875 -0.46428125 0.764605078125 -0.75043671875 1.301187109375 -0.751247265625h12.05036796875c0.83188046875 0.00006484375 1.5062878906250001 0.67443984375 1.5062878906250001 1.5063203125Zm-24.1007359375 0c0 0.83188046875 -0.67443984375 1.50625546875 -1.5062878906250001 1.5062878906250001h-6.025183984375c-1.159568359375 -0.001718359375 -1.882446484375 -1.258001171875 -1.301187109375 -2.2613609375 0.268971875 -0.46428125 0.764605078125 -0.75043671875 1.301187109375 -0.751247265625h6.025183984375c0.831848046875 0.00006484375 1.5062878906250001 0.67443984375 1.5062878906250001 1.5063203125Z" stroke-width="1"></path></svg>