<svg viewBox="0 0 84 84" fill="none" xmlns="http://www.w3.org/2000/svg" id="Wallet--Streamline-Unicons-Thinline.svg" height="84" width="84"><desc>Wallet Streamline Icon: https://streamlinehq.com</desc><path d="M68.25 24.5H63V21c-0.0063 -5.796455 -4.7036500000000006 -10.493595 -10.5 -10.5H15.75C10.919335 10.50448 7.00448 14.419335 7 19.25V63c0.006405 5.7963499999999994 4.703545 10.4937 10.5 10.5h50.75c4.8307 -0.00455 8.74545 -3.9193 8.75 -8.75v-31.5c-0.00455 -4.830665 -3.9193 -8.74552 -8.75 -8.75Zm-52.5 -10.5H52.5c3.8640000000000003 0.0049 6.9951 3.136 7 7v3.5H15.75C12.850495 24.5 10.5 22.149505 10.5 19.25S12.850495 14 15.75 14ZM73.5 56h-7c-3.8661000000000003 0 -7 -3.1338999999999997 -7 -7s3.1338999999999997 -7 7 -7h7v14Zm0 -17.5h-7c-5.79915 0 -10.5 4.70085 -10.5 10.5s4.70085 10.5 10.5 10.5h7v5.25c-0.00315 2.8983499999999998 -2.3516500000000002 5.24685 -5.25 5.25H17.5c-3.8640000000000003 -0.0049 -6.9951 -3.136 -7 -7V26.24657c1.5126650000000001 1.1401249999999998 3.3558 1.755775 5.25 1.7534299999999998h52.5c2.8983499999999998 0.00322 5.24685 2.35179 5.25 5.25V38.5Z" fill="#000000" stroke-width="1"></path></svg>